<?xml version="1.0" encoding="UTF-8" standalone="no"?>
<!-- Created with Inkscape (http://www.inkscape.org/) -->

<svg
   xmlns:dc="http://purl.org/dc/elements/1.1/"
   xmlns:cc="http://creativecommons.org/ns#"
   xmlns:rdf="http://www.w3.org/1999/02/22-rdf-syntax-ns#"
   xmlns:svg="http://www.w3.org/2000/svg"
   xmlns="http://www.w3.org/2000/svg"
   xmlns:sodipodi="http://sodipodi.sourceforge.net/DTD/sodipodi-0.dtd"
   xmlns:inkscape="http://www.inkscape.org/namespaces/inkscape"
   width="210mm"
   height="297mm"
   viewBox="0 0 210 297"
   version="1.1"
   id="svg1030"
   inkscape:version="0.92.5 (2060ec1f9f, 2020-04-08)"
   sodipodi:docname="chat1.svg">
  <defs
     id="defs1024">
    <clipPath
       clipPathUnits="userSpaceOnUse"
       id="clipPath337">
      <path
         style="fill:none;stroke:#000000;stroke-width:0.75px;stroke-linecap:butt;stroke-linejoin:miter;stroke-opacity:1"
         d="m 200.00002,691.52542 c 101.69498,0 277.96613,10.1695 277.96613,10.1695 l -20.33895,-128.8135 94.91528,-13.5594 -10.16948,-159.322 -54.2373,-84.7458 57.62708,-71.1864 L 427.1187,33.89827 223.7289,125.4237 108.47459,474.57632 l 91.52543,138.983 z"
         id="path339"
         inkscape:connector-curvature="0" />
    </clipPath>
    <clipPath
       clipPathUnits="userSpaceOnUse"
       id="clipPath40">
      <path
         d="M 0,800 H 1280 V 0 H 0 Z"
         id="path38"
         inkscape:connector-curvature="0" />
    </clipPath>
  </defs>
  <sodipodi:namedview
     id="base"
     pagecolor="#ffffff"
     bordercolor="#666666"
     borderopacity="1.0"
     inkscape:pageopacity="0.0"
     inkscape:pageshadow="2"
     inkscape:zoom="0.35"
     inkscape:cx="400"
     inkscape:cy="560"
     inkscape:document-units="mm"
     inkscape:current-layer="layer1"
     showgrid="false"
     inkscape:window-width="1848"
     inkscape:window-height="1016"
     inkscape:window-x="72"
     inkscape:window-y="27"
     inkscape:window-maximized="1" />
  <metadata
     id="metadata1027">
    <rdf:RDF>
      <cc:Work
         rdf:about="">
        <dc:format>image/svg+xml</dc:format>
        <dc:type
           rdf:resource="http://purl.org/dc/dcmitype/StillImage" />
        <dc:title></dc:title>
      </cc:Work>
    </rdf:RDF>
  </metadata>
  <g
     inkscape:label="Calque 1"
     inkscape:groupmode="layer"
     id="layer1">
    <g
       id="g34"
       transform="matrix(0.47483546,0,0,-0.47483546,-60.340642,325.292)"
       clip-path="url(#clipPath337)"
       style="fill:none;stroke:#000000;stroke-width:0.03714729">
      <g
         id="g36"
         clip-path="url(#clipPath40)"
         style="stroke-width:0.03714729">
        <g
           id="g42"
           transform="translate(351.9995,569.8052)"
           style="stroke-width:0.03714729">
          <path
             d="M 0,0 C -0.383,0.072 -0.754,0.174 -1.111,0.302 -1.167,0.313 -1.216,0.308 -1.273,0.323 -1.47,0.378 -1.649,0.459 -1.821,0.551 -1.973,0.596 -2.125,0.641 -2.277,0.688 -2.284,0.691 -2.29,0.697 -2.297,0.7 L -2.308,0.696 c 0.847,-0.942 -0.104,-1.63 -0.454,-2.258 -4.629,-8.297 -11.569,-13.279 -21.196,-13.446 -9.641,-0.167 -16.71,4.613 -21.592,12.772 -0.49,0.817 -1.207,1.601 -1.005,2.697 -0.016,0.008 -0.031,0.018 -0.047,0.027 -0.145,-0.08 -0.285,-0.172 -0.436,-0.239 -0.258,-0.167 -0.53,-0.312 -0.842,-0.392 -0.04,-0.01 -0.079,-0.023 -0.119,-0.034 -0.112,-0.081 -0.229,-0.147 -0.35,-0.2 0,-0.002 0,-0.005 0,-0.007 2.497,-5.288 6.054,-9.651 11.124,-12.676 12.968,-7.734 29.606,-2.478 36.242,11.429 0.268,0.562 0.377,1.244 0.983,1.608 z"
             style="fill:#000000;fill-opacity:1;fill-rule:nonzero;stroke:none;stroke-width:0.03714729"
             id="path44"
             inkscape:connector-curvature="0" />
        </g>
        <g
           id="g46"
           transform="translate(303.6504,569.4209)"
           style="stroke-width:0.03714729">
          <path
             d="m 0,0 c 2.497,-5.288 6.054,-9.651 11.125,-12.675 12.967,-7.735 29.605,-2.479 36.241,11.428 0.268,0.562 0.377,1.244 0.984,1.608 7.224,-2.271 14.294,-4.94 21.113,-8.245 0.825,-0.4 1.758,-0.639 2.378,-1.396 0.062,-0.865 -0.364,-2.105 0.799,-2.331 1.122,-0.218 0.766,0.983 0.925,1.634 7.272,-3.612 14.054,-8.014 20.648,-12.73 0.937,-0.669 0.707,-1.496 0.736,-2.33 0.015,-0.433 0.077,-0.898 0.531,-0.928 0.316,-0.021 0.919,0.014 0.913,0.568 -0.013,1.014 0.383,0.753 0.896,0.355 13.489,-10.48 25.553,-22.202 32.649,-38.132 9.189,-20.625 2.462,-40.512 -10.551,-54.182 -2.932,-3.08 -6.106,-5.943 -9.302,-8.756 -3.024,-2.661 -4.352,-5.937 -4.36,-9.887 -0.014,-6.302 0.569,-12.581 0.726,-18.875 0.094,-3.761 0.018,-7.527 0.018,-11.574 -6.963,6.417 -13.621,12.738 -18.957,20.308 -0.554,0.785 -0.989,2.067 -1.986,1.998 -1.176,-0.08 -1.547,-1.452 -2.007,-2.42 -0.605,-1.273 -0.83,-2.666 -0.848,-4.081 -0.34,-26.821 2.248,-53.336 8.412,-79.463 2.345,-9.942 5.269,-19.696 10.768,-28.453 2.464,-3.922 5.232,-7.608 9.114,-10.261 6.695,-4.576 13.768,-3.26 18.435,3.378 0.975,1.386 1.75,2.884 2.383,4.457 2.095,5.202 3.353,10.655 4.763,16.059 4.756,18.239 7.923,36.792 10.911,55.381 0.695,4.321 -1.136,7.123 -4.665,9.485 -10.83,7.252 -18.432,17.176 -23.178,29.265 -1.415,3.603 -2.196,7.405 -1.181,11.301 0.978,3.757 3.338,6.35 6.979,7.696 3.659,1.352 6.95,0.31 9.287,-2.805 0.358,-0.476 0.547,-1.328 1.383,-1.094 0.859,0.24 0.526,1.058 0.559,1.65 0.434,7.915 7.053,13.528 14.695,12.257 4.685,-0.778 7.977,-3.604 10.17,-7.767 0.307,-0.583 0.427,-1.492 1.365,-1.335 0.836,0.139 0.611,0.994 0.795,1.563 1.023,3.184 3.069,5.402 6.376,6.088 3.777,0.783 6.853,-0.694 9.299,-3.541 1.686,-1.962 2.445,-4.337 2.804,-6.863 0.234,-1.65 0.583,-1.774 1.917,-0.719 4.628,3.661 10.443,2.048 11.799,-3.685 1.977,-8.356 2.467,-16.91 -3.353,-24.037 -5.304,-6.497 -11.345,-12.4 -18.216,-17.33 -0.931,-0.668 -2.036,-1.131 -3.115,-1.546 -2.728,-1.048 -4.673,-2.906 -6.263,-5.335 -5.377,-8.213 -8.84,-17.119 -10.351,-26.834 -2.589,-16.649 -6.449,-33.034 -10.64,-49.341 -4.029,-15.678 -8.48,-31.242 -13.078,-46.761 -6.494,-21.92 -17.959,-40.945 -33.657,-57.502 -8.666,-9.141 -17.927,-17.539 -28.884,-23.883 -15.815,-9.155 -32.843,-12.538 -50.957,-10.425 -23.137,2.698 -42.714,12.98 -59.666,28.545 -16.8,15.427 -28.032,34.548 -36.123,55.661 -1.186,3.094 -2.392,6.199 -3.268,9.387 -3.767,13.715 -9.893,26.606 -13.793,40.287 -4.798,16.826 -8.852,33.797 -11.713,51.055 -0.916,5.525 -2.128,10.98 -3.923,16.295 -3.003,8.892 -8.293,16.063 -15.916,21.582 -5.976,4.325 -11.529,9.143 -15.772,15.27 -5.208,7.521 -7.937,15.776 -7.139,25.015 0.178,2.062 0.815,3.994 2.139,5.637 1.701,2.11 5.155,2.932 7.636,1.832 1.388,-0.616 2.217,-1.603 2.333,-3.194 0.048,-0.652 -0.209,-1.824 0.956,-1.673 1.063,0.137 0.65,1.204 0.632,1.899 -0.117,4.553 2.835,9.105 6.916,10.602 5.538,2.031 11.737,-1.355 13.388,-7.292 0.171,-0.614 -0.002,-1.577 1.003,-1.582 1.012,-0.004 0.841,1 1.018,1.587 2.976,9.857 14.143,13.479 21.506,6.902 3.061,-2.733 4.533,-6.282 4.776,-10.36 0.032,-0.545 -0.231,-1.278 0.578,-1.458 0.747,-0.167 0.964,0.528 1.244,1.01 1.057,1.82 2.151,3.612 3.755,5.017 1.926,1.688 4.212,2.622 6.611,1.544 3.879,-1.741 5.979,-4.95 6.446,-9.201 0.861,-7.851 -1.594,-14.961 -5,-21.812 -3.39,-6.821 -8.497,-12.214 -14.515,-16.796 -1.628,-1.239 -3.131,-2.62 -4.531,-4.115 -4.081,-4.361 -4.659,-9.783 -4.496,-15.349 0.217,-7.4 0.508,-14.803 1.558,-22.148 2.153,-15.054 5.447,-29.785 12.325,-43.5 1.234,-2.458 2.694,-4.77 4.524,-6.833 7.028,-7.927 16.708,-8.455 24.567,-1.324 4.6,4.173 7.232,9.572 8.993,15.355 5.281,17.342 9.761,34.886 12.69,52.799 2.112,12.908 3.519,25.879 3.482,38.98 -0.006,2.523 -0.282,5.014 -1.243,7.371 -1.284,3.149 -3.552,4.118 -6.772,2.966 -2.654,-0.948 -4.452,-2.92 -6.065,-5.095 -2.021,-2.724 -3.538,-5.75 -5.154,-8.716 -1.296,-2.382 -2.579,-4.778 -4.823,-6.697 0.137,1.623 0.258,3.247 0.414,4.868 0.915,9.522 1.928,19.041 1.499,28.63 -0.117,2.618 -0.486,5.224 -0.678,7.84 -0.072,0.981 -0.704,1.42 -1.339,2.032 -1.616,1.554 -3.38,2.91 -5.342,3.923 -4.966,2.565 -8.693,6.387 -11.738,10.985 -6.157,9.296 -10.405,19.249 -10.608,30.603 -0.223,12.491 3.968,23.529 11.15,33.555 7.066,9.866 16.217,17.5 26.155,24.28 0.37,0.252 0.751,0.721 1.242,0.444 1.072,-0.606 1.385,-0.02 1.451,0.88 0.061,0.825 0.761,0.985 1.261,1.299 5.763,3.628 11.544,7.228 17.32,10.834 0.415,-0.382 0.195,-1.38 1.112,-1.246 0.738,0.108 0.771,0.743 0.756,1.335 -0.006,0.224 -0.065,0.447 -0.101,0.671 2.397,1.767 5.095,3.013 7.712,4.389 C -8.904,-3.996 -4.534,-1.822 0,0"
             style="fill:#000000;fill-opacity:1;fill-rule:nonzero;stroke:none;stroke-width:0.03714729"
             id="path48"
             inkscape:connector-curvature="0" />
        </g>
        <g
           id="g50"
           transform="translate(492.8936,447.2314)"
           style="stroke-width:0.03714729">
          <path
             d="M 0,0 C 5.045,-1.919 7.523,-6.698 6.215,-11.256 4.437,-10.303 3.25,-9.027 2.873,-6.873 2.469,-4.559 1.33,-2.437 0,0"
             style="fill:#000000;fill-opacity:1;fill-rule:nonzero;stroke:none;stroke-width:0.03714729"
             id="path52"
             inkscape:connector-curvature="0" />
        </g>
        <g
           id="g54"
           transform="translate(222.2285,453.0444)"
           style="stroke-width:0.03714729">
          <path
             d="M 0,0 C 3.766,-2.286 5.591,-5.458 6.396,-9.303 6.224,-9.415 6.18,-9.467 6.131,-9.473 3,-9.84 2.016,-8.128 1.71,-5.313 1.528,-3.636 0.68,-2.031 0,0"
             style="fill:#000000;fill-opacity:1;fill-rule:nonzero;stroke:none;stroke-width:0.03714729"
             id="path56"
             inkscape:connector-curvature="0" />
        </g>
        <g
           id="g58"
           transform="translate(476.4941,455.4932)"
           style="stroke-width:0.03714729">
          <path
             d="M 0,0 C 3.477,-1.312 5.631,-4.255 5.258,-7.34 5.188,-7.913 5.406,-9.076 4.522,-8.946 3.764,-8.835 2.556,-8.639 2.362,-7.531 1.91,-4.935 0.801,-2.582 -0.182,-0.179 Z"
             style="fill:#000000;fill-opacity:1;fill-rule:nonzero;stroke:none;stroke-width:0.03714729"
             id="path60"
             inkscape:connector-curvature="0" />
        </g>
        <g
           id="g62"
           transform="translate(436.6294,450.251)"
           style="stroke-width:0.03714729">
          <path
             d="m 0,0 c -0.899,-1.34 -1.799,-2.68 -2.697,-4.022 -1.156,-1.726 -2.043,-3.559 -1.83,-5.701 0.079,-0.792 -0.242,-0.898 -0.866,-0.871 -0.519,0.022 -1.039,0.004 -1.699,0.004 C -6.38,-5.939 -4.76,-1.986 0,0"
             style="fill:#000000;fill-opacity:1;fill-rule:nonzero;stroke:none;stroke-width:0.03714729"
             id="path64"
             inkscape:connector-curvature="0" />
        </g>
        <g
           id="g66"
           transform="translate(457.0229,457.8423)"
           style="stroke-width:0.03714729">
          <path
             d="m 0,0 c 0.176,-0.965 -0.411,-1.672 -0.585,-2.462 -0.367,-1.661 -0.496,-3.342 -0.355,-5.027 0.075,-0.903 0.142,-1.55 -1.076,-1.056 -0.797,0.323 -2.035,-0.338 -2.416,0.414 -0.413,0.818 0.082,1.93 0.357,2.876 0.65,2.234 1.662,4.21 4.075,5.255"
             style="fill:#000000;fill-opacity:1;fill-rule:nonzero;stroke:none;stroke-width:0.03714729"
             id="path68"
             inkscape:connector-curvature="0" />
        </g>
        <g
           id="g70"
           transform="translate(199.3799,458.5142)"
           style="stroke-width:0.03714729">
          <path
             d="M 0,0 C 2.681,-0.651 4.724,-3.709 5.01,-6.696 5.084,-7.474 4.603,-7.502 4.178,-7.378 3.433,-7.161 2.123,-8.118 1.997,-6.644 1.8,-4.348 1.211,-2.21 0,0"
             style="fill:#000000;fill-opacity:1;fill-rule:nonzero;stroke:none;stroke-width:0.03714729"
             id="path72"
             inkscape:connector-curvature="0" />
        </g>
        <g
           id="g74"
           transform="translate(178.9746,454.6157)"
           style="stroke-width:0.03714729">
          <path
             d="m 0,0 c -0.268,-1.657 -0.567,-3.309 -0.793,-4.971 -0.213,-1.571 -1.443,-0.755 -2.185,-0.907 -1.005,-0.206 -0.88,0.73 -0.819,1.299 0.246,2.285 1.64,3.762 3.568,4.825 C -0.158,0.159 -0.082,0.077 0,0"
             style="fill:#000000;fill-opacity:1;fill-rule:nonzero;stroke:none;stroke-width:0.03714729"
             id="path76"
             inkscape:connector-curvature="0" />
        </g>
        <g
           id="g78"
           transform="translate(159.7183,448.2563)"
           style="stroke-width:0.03714729">
          <path
             d="M 0,0 C -0.237,-2.547 -0.68,-4.583 -0.52,-6.712 -0.443,-7.725 -2.055,-7.268 -2.791,-8.209 -3.095,-4.962 -2.307,-2.49 0,0"
             style="fill:#000000;fill-opacity:1;fill-rule:nonzero;stroke:none;stroke-width:0.03714729"
             id="path80"
             inkscape:connector-curvature="0" />
        </g>
        <g
           id="g82"
           transform="translate(377.2158,559.4443)"
           style="stroke-width:0.03714729">
          <path
             d="M 0,0 C -0.16,-0.651 0.196,-1.852 -0.925,-1.634 -2.088,-1.409 -1.662,-0.168 -1.724,0.697 -1.137,0.494 -0.485,0.452 0,0"
             style="fill:#000000;fill-opacity:1;fill-rule:nonzero;stroke:none;stroke-width:0.03714729"
             id="path84"
             inkscape:connector-curvature="0" />
        </g>
        <g
           id="g86"
           transform="translate(282.7158,558.7637)"
           style="stroke-width:0.03714729">
          <path
             d="M 0,0 C 0.035,-0.224 0.095,-0.447 0.101,-0.671 0.115,-1.263 0.083,-1.898 -0.655,-2.006 -1.573,-2.14 -1.353,-1.142 -1.767,-0.759 -1.178,-0.506 -0.589,-0.253 0,0"
             style="fill:#000000;fill-opacity:1;fill-rule:nonzero;stroke:none;stroke-width:0.03714729"
             id="path88"
             inkscape:connector-curvature="0" />
        </g>
        <g
           id="g90"
           transform="translate(476.3125,455.3145)"
           style="stroke-width:0.03714729">
          <path
             d="M 0,0 C -0.145,0.048 -0.293,0.114 -0.172,0.29 -0.152,0.32 0.058,0.218 0.181,0.178 0.121,0.119 0.061,0.06 0,0"
             style="fill:#f0f0f0;fill-opacity:1;fill-rule:nonzero;stroke:none;stroke-width:0.03714729"
             id="path92"
             inkscape:connector-curvature="0" />
        </g>
        <g
           id="g94"
           transform="translate(178.7456,454.8618)"
           style="stroke-width:0.03714729">
          <path
             d="M 0,0 C 0.143,0.094 0.296,0.186 0.407,-0.018 0.426,-0.052 0.292,-0.168 0.229,-0.246 0.147,-0.169 0.071,-0.087 0,0"
             style="fill:#000000;fill-opacity:1;fill-rule:nonzero;stroke:none;stroke-width:0.03714729"
             id="path96"
             inkscape:connector-curvature="0" />
        </g>
        <g
           id="g98"
           transform="translate(305.4443,570.2666)"
           style="stroke-width:0.03714729">
          <path
             d="M 0,0 C 7.685,2.978 15.578,4.796 23.888,4.212 30.366,3.757 36.659,2.311 42.896,0.581 43.344,0.457 43.797,0.35 44.248,0.234 45.094,-0.707 44.143,-1.395 43.793,-2.023 39.164,-10.321 32.224,-15.302 22.597,-15.469 12.956,-15.636 5.887,-10.856 1.005,-2.698 0.516,-1.88 -0.202,-1.097 0,0"
             style="fill:#a52828;fill-opacity:1;fill-rule:nonzero;stroke:none;stroke-width:0.03714729"
             id="path100"
             inkscape:connector-curvature="0" />
        </g>
        <g
           id="g102"
           transform="translate(310.8325,665.79)"
           style="stroke-width:0.03714729">
          <path
             d="M 0,0 C -0.037,-0.156 -0.074,-0.312 -0.111,-0.469 -0.074,-0.313 -0.037,-0.157 0,0"
             style="fill:#2f2b2c;fill-opacity:1;fill-rule:nonzero;stroke:none;stroke-width:0.03714729"
             id="path104"
             inkscape:connector-curvature="0" />
        </g>
        <g
           id="g106"
           transform="translate(398.2812,671.9341)"
           style="stroke-width:0.03714729">
          <path
             d="m 0,0 c 0.353,-0.061 0.706,-0.121 1.06,-0.181 3.371,-0.702 5.425,-2.871 6.763,-5.93 1.606,-3.671 2.809,-4.289 6.673,-2.978 4.017,1.362 7.809,1.645 11.388,-1.06 4.556,-4.537 3.972,-9.937 2.689,-15.51 -2.194,-9.528 -7.997,-16.235 -16.229,-21.103 -2.805,-1.658 -5.592,-3.346 -8.376,-5.04 -4.325,-2.631 -6.105,-6.654 -6.421,-11.551 -0.86,-13.335 0.298,-26.543 2.269,-39.716 1.233,-8.243 2.376,-16.501 2.279,-24.867 -0.007,-0.58 0.363,-1.288 -0.337,-1.755 -6.48,4.827 -13.327,9.065 -20.504,12.776 -0.498,0.258 -1.132,0.361 -1.345,1.01 -0.589,8.163 0.639,16.295 0.435,24.448 -0.207,8.285 -0.997,16.514 -2.67,24.644 -1.131,5.491 -4.246,9.103 -9.64,10.919 -6.57,2.212 -12.944,4.894 -18.779,8.737 -10.107,6.657 -14.147,16.47 -14.646,28.091 -0.126,2.929 0.698,5.659 3.035,7.705 0.962,-0.028 2.118,-0.392 2.14,1.225 1.787,0.796 3.695,0.81 5.596,0.861 l 1.035,-0.098 c 2.818,-0.855 5.437,-2.028 7.385,-4.374 0.623,-0.751 1.304,-0.544 1.927,0.128 0.843,0.912 1.461,1.963 1.941,3.09 2.062,4.849 5.826,7.541 10.864,8.642 0.224,0.049 0.434,0.165 0.65,0.249 0.578,0.033 1.155,0.065 1.734,0.097 1.793,-0.051 3.555,-0.316 5.29,-0.774 0.348,-0.124 0.697,-0.247 1.045,-0.371 3.438,-1.769 6.497,-4.034 9.049,-6.954 0.752,-0.86 1.402,-0.597 1.998,0.169 0.326,0.419 0.532,0.897 0.557,1.44 0.177,3.799 2.382,5.997 5.748,7.279 0.413,0.139 0.826,0.279 1.239,0.419 C -2.772,-0.222 -1.386,-0.111 0,0"
             style="fill:#000000;fill-opacity:1;fill-rule:nonzero;stroke:none;stroke-width:0.03714729"
             id="path108"
             inkscape:connector-curvature="0" />
        </g>
        <g
           id="g110"
           transform="translate(338.0688,663.6655)"
           style="stroke-width:0.03714729">
          <path
             d="M 0,0 C 0.805,3.368 1.686,6.72 2.215,10.545 4.039,7.245 4.539,3.931 5.209,0.67 3.473,0.447 1.736,0.223 0,0"
             style="fill:#000000;fill-opacity:1;fill-rule:nonzero;stroke:none;stroke-width:0.03714729"
             id="path112"
             inkscape:connector-curvature="0" />
        </g>
        <g
           id="g114"
           transform="translate(417.5771,665.7236)"
           style="stroke-width:0.03714729">
          <path
             d="M 0,0 C 0.459,2.725 0.918,5.45 1.444,8.568 3.588,4.952 6.868,2.338 6.616,-2.051 4.612,-0.716 2.434,0.055 0,0"
             style="fill:#000000;fill-opacity:1;fill-rule:nonzero;stroke:none;stroke-width:0.03714729"
             id="path116"
             inkscape:connector-curvature="0" />
        </g>
        <g
           id="g118"
           transform="translate(369.1953,671.9512)"
           style="stroke-width:0.03714729">
          <path
             d="M 0,0 C 0.088,2.627 1.612,4.862 2.048,7.464 3.459,4.919 4.678,2.36 4.889,-0.562 3.276,-0.229 1.656,0.043 0,0"
             style="fill:#000000;fill-opacity:1;fill-rule:nonzero;stroke:none;stroke-width:0.03714729"
             id="path120"
             inkscape:connector-curvature="0" />
        </g>
        <g
           id="g122"
           transform="translate(394.0928,673.0508)"
           style="stroke-width:0.03714729">
          <path
             d="M 0,0 C -0.388,2.659 0.538,5.16 0.787,8.267 3.082,5.75 3.717,3.178 3.839,0.402 2.553,0.323 1.25,0.422 0,0"
             style="fill:#000000;fill-opacity:1;fill-rule:nonzero;stroke:none;stroke-width:0.03714729"
             id="path124"
             inkscape:connector-curvature="0" />
        </g>
        <g
           id="g126"
           transform="translate(308.8325,665.79)"
           style="stroke-width:0.03714729">
          <path
             d="M 0,0 C 0.557,3.254 1.114,6.509 1.671,9.764 3.091,6.181 2.895,2.278 4.002,-1.356 2.575,-1.385 1.283,-0.737 -0.1,-0.542 c 0,0 -0.01,0.073 -0.011,0.073 C -0.074,-0.312 -0.037,-0.156 0,0"
             style="fill:#000000;fill-opacity:1;fill-rule:nonzero;stroke:none;stroke-width:0.03714729"
             id="path128"
             inkscape:connector-curvature="0" />
        </g>
        <g
           id="g130"
           transform="translate(241.5601,663.7979)"
           style="stroke-width:0.03714729">
          <path
             d="m 0,0 c 1.306,-0.512 2.552,-1.115 3.586,-2.104 0.835,-0.798 1.529,-0.682 1.625,0.54 0.39,4.983 3.286,7.881 7.76,9.512 0.581,0.087 1.163,0.175 1.745,0.262 1.297,-0.153 2.595,-0.307 3.892,-0.46 0.308,-0.081 0.615,-0.161 0.922,-0.241 2.643,-1.28 5.016,-2.908 6.736,-5.345 0.738,-1.047 1.319,-0.754 2.064,0.037 4.005,4.256 8.835,6.496 14.788,5.883 0.346,-0.05 0.694,-0.1 1.041,-0.15 4.88,-1.6 8.435,-4.572 9.873,-9.666 0.298,-1.054 0.391,-2.165 0.558,-3.253 0.067,-0.436 -0.12,-0.984 0.534,-1.124 0.532,-0.114 0.867,0.193 1.172,0.577 2.635,3.305 6.172,4.797 10.293,5.109 0.233,-0.009 0.466,-0.017 0.699,-0.026 1.681,-0.315 3.34,-0.702 4.898,-1.437 0.253,-0.551 0.633,-0.891 1.288,-0.774 6.605,-5.018 6.351,-12.816 3.442,-18.559 -2.79,-5.505 -7.13,-9.623 -12.077,-13.127 -3.803,-2.693 -7.623,-5.392 -11.626,-7.766 -8.072,-4.787 -11.727,-12.154 -12.931,-21.086 -1.31,-9.725 -1.683,-19.509 -1.791,-29.306 -0.058,-5.184 -0.403,-10.367 -0.147,-15.555 -0.11,-0.334 -0.262,-0.583 -0.611,-0.782 -6.045,-3.459 -12.049,-6.987 -17.91,-10.754 -0.276,-0.177 -0.568,-0.462 -0.911,-0.092 -0.408,5.647 -0.447,11.3 -0.302,16.958 0.283,11.065 2,21.914 4.659,32.645 1.066,4.305 1.63,8.69 1.018,13.172 -0.796,5.828 -3.695,10.203 -8.674,13.264 -4.132,2.541 -8.738,4.112 -12.997,6.393 -9.694,5.192 -15.253,15.224 -14.165,25.663 0.343,3.301 1.457,6.369 3.337,9.094 1.536,2.228 3.961,2.69 6.482,2.786 C -1.154,0.192 -0.577,0.096 0,0"
             style="fill:#000000;fill-opacity:1;fill-rule:nonzero;stroke:none;stroke-width:0.03714729"
             id="path132"
             inkscape:connector-curvature="0" />
        </g>
        <g
           id="g134"
           transform="translate(256.2866,673.4736)"
           style="stroke-width:0.03714729">
          <path
             d="M 0,0 C 0.408,2.955 0.381,6 1.811,9.026 3.432,6.035 2.858,2.922 3.484,0.037 2.322,0.025 1.161,0.012 0,0"
             style="fill:#000000;fill-opacity:1;fill-rule:nonzero;stroke:none;stroke-width:0.03714729"
             id="path136"
             inkscape:connector-curvature="0" />
        </g>
        <g
           id="g138"
           transform="translate(281.1685,673.4863)"
           style="stroke-width:0.03714729">
          <path
             d="M 0,0 1.02,7.025 C 1.11,7.035 1.2,7.044 1.291,7.053 1.894,4.723 2.498,2.392 3.102,0.062 2.068,0.042 1.034,0.021 0,0"
             style="fill:#000000;fill-opacity:1;fill-rule:nonzero;stroke:none;stroke-width:0.03714729"
             id="path140"
             inkscape:connector-curvature="0" />
        </g>
        <g
           id="g142"
           transform="translate(235.7187,665.2251)"
           style="stroke-width:0.03714729">
          <path
             d="M 0,0 C 0.193,2.593 0.387,5.186 0.606,8.122 2.54,5.771 3.215,3.194 3.999,0.669 2.709,0.188 1.356,0.082 0,0"
             style="fill:#000000;fill-opacity:1;fill-rule:nonzero;stroke:none;stroke-width:0.03714729"
             id="path144"
             inkscape:connector-curvature="0" />
        </g>
        <g
           id="g146"
           transform="translate(352.4087,509.1978)"
           style="stroke-width:0.03714729">
          <path
             d="M 0,0 C 0.02,3.571 1.62,5.873 4.101,5.9 6.604,5.927 9.121,3.17 9.143,0.377 9.164,-2.375 6.58,-4.898 3.698,-4.939 1.358,-4.972 -0.017,-3.135 0,0"
             style="fill:#ffffff;fill-opacity:1;fill-rule:nonzero;stroke:none;stroke-width:0.03714729"
             id="path148"
             inkscape:connector-curvature="0" />
        </g>
        <g
           id="g150"
           transform="translate(304.2344,509.1978)"
           style="stroke-width:0.03714729">
          <path
             d="M 0,0 C 0.019,3.571 1.619,5.873 4.101,5.9 6.603,5.927 9.12,3.17 9.142,0.377 9.164,-2.375 6.58,-4.898 3.698,-4.939 1.358,-4.972 -0.017,-3.135 0,0"
             style="fill:#ffffff;fill-opacity:1;fill-rule:nonzero;stroke:none;stroke-width:0.03714729"
             id="path152"
             inkscape:connector-curvature="0" />
        </g>
        <g
           id="g154"
           transform="translate(325.6064,156.7227)"
           style="stroke-width:0.03714729">
          <path
             d="m 0,0 c 0,6.055 0.019,10.373 -0.019,14.692 -0.006,0.723 0.287,0.861 0.893,0.891 2.952,0.146 5.903,0.302 8.853,0.491 0.667,0.043 0.722,-0.335 0.739,-0.803 0.057,-1.636 0.225,-3.279 0.137,-4.908 -0.297,-5.457 0.344,-10.857 0.925,-16.255 0.843,-7.832 2.261,-15.559 4.76,-23.052 2.475,-7.424 5.693,-14.468 10.655,-20.614 5.218,-6.463 12.055,-10.199 20.15,-11.438 17.73,-2.715 33.798,1.34 47.822,12.637 9.546,7.69 15.054,17.933 17.818,29.734 2.784,11.887 2.243,23.782 -0.079,35.668 -1.733,8.872 -4.851,17.348 -7.413,25.982 -2.215,7.46 -4.026,15.03 -3.672,22.843 0.86,18.975 8.634,34.147 25.31,44.052 6.862,4.076 14.439,6.122 22.396,6.04 16.292,-0.166 29.123,-6.803 37.311,-21.224 4.331,-7.628 5.519,-16.006 4.741,-24.674 -0.62,-6.911 -2.691,-13.345 -6.521,-19.177 -3.536,-5.383 -8.186,-9.266 -14.603,-10.652 -10.051,-2.171 -20.666,2.419 -26.242,11.34 -3.767,6.029 -5.399,12.493 -3.58,19.554 0.522,2.027 1.366,3.919 2.91,5.415 1.001,0.969 2.165,1.647 3.56,1.826 3.687,0.471 6.095,-2.007 5.561,-5.687 -0.349,-2.408 -1.545,-4.513 -2.389,-6.743 -1.929,-5.1 0.058,-10.186 4.973,-12.602 3.81,-1.871 7.624,-1.599 11.246,0.426 5.714,3.193 9.019,8.252 10.453,14.52 2.942,12.859 -3.461,27.897 -17.756,32.632 -13.005,4.31 -27.518,-0.714 -35.103,-12.145 -3.815,-5.75 -5.708,-12.159 -6.531,-18.941 -1.202,-9.902 0.235,-19.599 2.275,-29.247 1.957,-9.251 4.238,-18.434 5.748,-27.779 1.81,-11.204 2.786,-22.445 1.559,-33.781 -1.204,-11.124 -4.271,-21.649 -10.218,-31.231 -7.342,-11.832 -17.938,-19.354 -31.186,-23.134 -14.541,-4.147 -29.126,-3.969 -43.561,0.599 -16.176,5.119 -27.321,15.823 -34.067,31.266 -3.886,8.898 -5.929,18.255 -6.957,27.87 C 0.282,-9.843 0.081,-4.057 0,0"
             style="fill:#000000;fill-opacity:1;fill-rule:nonzero;stroke:none;stroke-width:0.03714729"
             id="path156"
             inkscape:connector-curvature="0" />
        </g>
        <g
           id="g158"
           transform="translate(952,569.8052)"
           style="stroke-width:0.03714729">
          <path
             d="M 0,0 C -0.384,0.072 -0.754,0.174 -1.112,0.302 -1.167,0.313 -1.217,0.308 -1.273,0.323 -1.471,0.378 -1.649,0.459 -1.821,0.551 -1.974,0.596 -2.126,0.641 -2.277,0.688 -2.285,0.691 -2.29,0.697 -2.298,0.7 -2.302,0.699 -2.305,0.697 -2.308,0.696 c 0.846,-0.942 -0.104,-1.63 -0.455,-2.258 -4.629,-8.297 -11.568,-13.279 -21.195,-13.446 -9.642,-0.167 -16.711,4.613 -21.593,12.772 -0.489,0.817 -1.206,1.601 -1.005,2.697 -0.015,0.008 -0.031,0.018 -0.046,0.027 -0.145,-0.08 -0.285,-0.172 -0.437,-0.239 -0.257,-0.167 -0.53,-0.312 -0.842,-0.392 -0.04,-0.01 -0.079,-0.023 -0.118,-0.034 -0.112,-0.081 -0.23,-0.147 -0.35,-0.2 -0.001,-0.002 -0.001,-0.005 -0.001,-0.007 2.497,-5.288 6.054,-9.651 11.125,-12.676 12.967,-7.734 29.606,-2.478 36.242,11.429 0.268,0.562 0.377,1.244 0.983,1.608 z"
             style="fill:#ffffff;fill-opacity:1;fill-rule:nonzero;stroke:none;stroke-width:0.03714729"
             id="path160"
             inkscape:connector-curvature="0" />
        </g>
        <g
           id="g162"
           transform="translate(1092.8936,447.2314)"
           style="stroke-width:0.03714729">
          <path
             d="M 0,0 C 5.045,-1.919 7.523,-6.698 6.216,-11.256 4.437,-10.303 3.25,-9.027 2.873,-6.873 2.469,-4.559 1.33,-2.437 0,0"
             style="fill:#ffffff;fill-opacity:1;fill-rule:nonzero;stroke:none;stroke-width:0.03714729"
             id="path164"
             inkscape:connector-curvature="0" />
        </g>
        <g
           id="g166"
           transform="translate(822.2285,453.0444)"
           style="stroke-width:0.03714729">
          <path
             d="M 0,0 C 3.766,-2.286 5.591,-5.458 6.396,-9.303 6.225,-9.415 6.181,-9.467 6.131,-9.473 3,-9.84 2.016,-8.128 1.71,-5.313 1.528,-3.636 0.681,-2.031 0,0"
             style="fill:#ffffff;fill-opacity:1;fill-rule:nonzero;stroke:none;stroke-width:0.03714729"
             id="path168"
             inkscape:connector-curvature="0" />
        </g>
        <g
           id="g170"
           transform="translate(1076.4941,455.4932)"
           style="stroke-width:0.03714729">
          <path
             d="M 0,0 C 3.477,-1.312 5.631,-4.255 5.258,-7.34 5.188,-7.913 5.406,-9.076 4.521,-8.946 3.764,-8.835 2.556,-8.639 2.362,-7.531 1.91,-4.935 0.802,-2.582 -0.182,-0.179 Z"
             style="fill:#ffffff;fill-opacity:1;fill-rule:nonzero;stroke:none;stroke-width:0.03714729"
             id="path172"
             inkscape:connector-curvature="0" />
        </g>
        <g
           id="g174"
           transform="translate(1036.6299,450.251)"
           style="stroke-width:0.03714729">
          <path
             d="m 0,0 c -0.899,-1.34 -1.8,-2.68 -2.697,-4.022 -1.156,-1.726 -2.044,-3.559 -1.83,-5.701 0.078,-0.792 -0.243,-0.898 -0.867,-0.871 -0.518,0.022 -1.039,0.004 -1.699,0.004 C -6.381,-5.939 -4.76,-1.986 0,0"
             style="fill:#ffffff;fill-opacity:1;fill-rule:nonzero;stroke:none;stroke-width:0.03714729"
             id="path176"
             inkscape:connector-curvature="0" />
        </g>
        <g
           id="g178"
           transform="translate(1057.0225,457.8423)"
           style="stroke-width:0.03714729">
          <path
             d="m 0,0 c 0.177,-0.965 -0.41,-1.672 -0.585,-2.462 -0.366,-1.661 -0.495,-3.342 -0.354,-5.027 0.075,-0.903 0.142,-1.55 -1.076,-1.056 -0.798,0.323 -2.036,-0.338 -2.417,0.414 -0.413,0.818 0.082,1.93 0.358,2.876 C -3.425,-3.021 -2.412,-1.045 0,0"
             style="fill:#ffffff;fill-opacity:1;fill-rule:nonzero;stroke:none;stroke-width:0.03714729"
             id="path180"
             inkscape:connector-curvature="0" />
        </g>
        <g
           id="g182"
           transform="translate(799.3799,458.5142)"
           style="stroke-width:0.03714729">
          <path
             d="M 0,0 C 2.681,-0.651 4.724,-3.709 5.01,-6.696 5.084,-7.474 4.603,-7.502 4.178,-7.378 3.434,-7.161 2.123,-8.118 1.997,-6.644 1.8,-4.348 1.211,-2.21 0,0"
             style="fill:#ffffff;fill-opacity:1;fill-rule:nonzero;stroke:none;stroke-width:0.03714729"
             id="path184"
             inkscape:connector-curvature="0" />
        </g>
        <g
           id="g186"
           transform="translate(778.9746,454.6157)"
           style="stroke-width:0.03714729">
          <path
             d="m 0,0 c -0.268,-1.657 -0.567,-3.309 -0.793,-4.971 -0.213,-1.571 -1.442,-0.755 -2.186,-0.907 -1.004,-0.206 -0.879,0.73 -0.818,1.299 0.246,2.285 1.641,3.762 3.568,4.825 C -0.158,0.159 -0.081,0.077 0,0"
             style="fill:#ffffff;fill-opacity:1;fill-rule:nonzero;stroke:none;stroke-width:0.03714729"
             id="path188"
             inkscape:connector-curvature="0" />
        </g>
        <g
           id="g190"
           transform="translate(759.7187,448.2563)"
           style="stroke-width:0.03714729">
          <path
             d="M 0,0 C -0.237,-2.547 -0.681,-4.583 -0.52,-6.712 -0.443,-7.725 -2.056,-7.268 -2.792,-8.209 -3.095,-4.962 -2.308,-2.49 0,0"
             style="fill:#ffffff;fill-opacity:1;fill-rule:nonzero;stroke:none;stroke-width:0.03714729"
             id="path192"
             inkscape:connector-curvature="0" />
        </g>
        <g
           id="g194"
           transform="translate(977.2158,559.4443)"
           style="stroke-width:0.03714729">
          <path
             d="M 0,0 C -0.16,-0.651 0.196,-1.852 -0.926,-1.634 -2.088,-1.409 -1.662,-0.168 -1.724,0.697 -1.138,0.494 -0.485,0.452 0,0"
             style="fill:#ffffff;fill-opacity:1;fill-rule:nonzero;stroke:none;stroke-width:0.03714729"
             id="path196"
             inkscape:connector-curvature="0" />
        </g>
        <g
           id="g198"
           transform="translate(882.7158,558.7637)"
           style="stroke-width:0.03714729">
          <path
             d="M 0,0 C 0.035,-0.224 0.095,-0.447 0.101,-0.671 0.115,-1.263 0.083,-1.898 -0.655,-2.006 -1.573,-2.14 -1.353,-1.142 -1.767,-0.759 -1.178,-0.506 -0.589,-0.253 0,0"
             style="fill:#ffffff;fill-opacity:1;fill-rule:nonzero;stroke:none;stroke-width:0.03714729"
             id="path200"
             inkscape:connector-curvature="0" />
        </g>
        <g
           id="g202"
           transform="translate(1076.3125,455.3145)"
           style="stroke-width:0.03714729">
          <path
             d="M 0,0 C -0.146,0.048 -0.293,0.114 -0.172,0.29 -0.151,0.32 0.059,0.218 0.181,0.178 0.121,0.119 0.061,0.06 0,0"
             style="fill:#ffffff;fill-opacity:1;fill-rule:nonzero;stroke:none;stroke-width:0.03714729"
             id="path204"
             inkscape:connector-curvature="0" />
        </g>
        <g
           id="g206"
           transform="translate(778.7461,454.8618)"
           style="stroke-width:0.03714729">
          <path
             d="M 0,0 C 0.142,0.094 0.296,0.186 0.407,-0.018 0.425,-0.052 0.292,-0.168 0.229,-0.246 0.147,-0.169 0.07,-0.087 0,0"
             style="fill:#ffffff;fill-opacity:1;fill-rule:nonzero;stroke:none;stroke-width:0.03714729"
             id="path208"
             inkscape:connector-curvature="0" />
        </g>
        <g
           id="g210"
           transform="translate(903.6504,569.4209)"
           style="stroke-width:0.03714729">
          <path
             d="m 0,0 c 2.497,-5.288 6.054,-9.651 11.125,-12.675 12.967,-7.735 29.605,-2.479 36.241,11.428 0.269,0.562 0.377,1.244 0.984,1.608 7.224,-2.271 14.294,-4.94 21.113,-8.245 0.825,-0.4 1.758,-0.639 2.379,-1.396 0.061,-0.865 -0.364,-2.105 0.798,-2.331 1.122,-0.218 0.765,0.983 0.925,1.634 7.273,-3.612 14.054,-8.014 20.648,-12.73 0.936,-0.669 0.708,-1.496 0.736,-2.33 0.015,-0.433 0.077,-0.898 0.53,-0.928 0.317,-0.021 0.92,0.014 0.914,0.568 -0.013,1.014 0.383,0.753 0.896,0.355 13.488,-10.48 25.553,-22.202 32.649,-38.132 9.189,-20.625 2.462,-40.512 -10.55,-54.182 -2.933,-3.08 -6.108,-5.943 -9.303,-8.756 -3.023,-2.661 -4.352,-5.937 -4.36,-9.887 -0.014,-6.302 0.569,-12.581 0.726,-18.875 0.095,-3.761 0.018,-7.527 0.018,-11.574 -6.963,6.417 -13.62,12.738 -18.957,20.308 -0.553,0.785 -0.989,2.067 -1.987,1.998 -1.175,-0.08 -1.546,-1.452 -2.006,-2.42 -0.605,-1.273 -0.83,-2.666 -0.847,-4.081 -0.341,-26.821 2.247,-53.336 8.41,-79.463 2.346,-9.942 5.27,-19.696 10.77,-28.453 2.463,-3.922 5.231,-7.608 9.113,-10.261 6.695,-4.576 13.768,-3.26 18.435,3.378 0.975,1.386 1.75,2.884 2.383,4.457 2.095,5.202 3.354,10.655 4.763,16.059 4.757,18.239 7.923,36.792 10.911,55.381 0.695,4.321 -1.137,7.123 -4.664,9.485 -10.83,7.252 -18.433,17.176 -23.179,29.265 -1.415,3.603 -2.196,7.405 -1.181,11.301 0.978,3.757 3.338,6.35 6.979,7.696 3.659,1.352 6.95,0.31 9.287,-2.805 0.358,-0.476 0.546,-1.328 1.382,-1.094 0.859,0.24 0.527,1.058 0.56,1.65 0.434,7.915 7.053,13.528 14.696,12.257 4.684,-0.778 7.976,-3.604 10.169,-7.767 0.307,-0.583 0.428,-1.492 1.365,-1.335 0.836,0.139 0.611,0.994 0.794,1.563 1.024,3.184 3.069,5.402 6.377,6.088 3.776,0.783 6.853,-0.694 9.299,-3.541 1.685,-1.962 2.444,-4.337 2.804,-6.863 0.234,-1.65 0.583,-1.774 1.917,-0.719 4.628,3.661 10.443,2.048 11.799,-3.685 1.978,-8.356 2.466,-16.91 -3.352,-24.037 -5.305,-6.497 -11.346,-12.4 -18.217,-17.33 -0.931,-0.668 -2.036,-1.131 -3.115,-1.546 -2.729,-1.048 -4.673,-2.906 -6.263,-5.335 -5.377,-8.213 -8.84,-17.119 -10.351,-26.834 -2.589,-16.649 -6.449,-33.034 -10.639,-49.341 -4.03,-15.678 -8.482,-31.242 -13.079,-46.761 -6.494,-21.92 -17.959,-40.945 -33.657,-57.502 -8.666,-9.141 -17.927,-17.539 -28.884,-23.883 -15.815,-9.155 -32.842,-12.538 -50.957,-10.425 -23.137,2.698 -42.714,12.98 -59.666,28.545 -16.8,15.427 -28.032,34.548 -36.123,55.661 -1.186,3.094 -2.393,6.199 -3.268,9.387 -3.767,13.715 -9.893,26.606 -13.794,40.287 -4.797,16.826 -8.851,33.797 -11.713,51.055 -0.916,5.525 -2.127,10.98 -3.922,16.295 -3.003,8.892 -8.293,16.063 -15.917,21.582 -5.975,4.325 -11.529,9.143 -15.771,15.27 -5.208,7.521 -7.937,15.776 -7.139,25.015 0.178,2.062 0.815,3.994 2.139,5.637 1.701,2.11 5.155,2.932 7.637,1.832 1.387,-0.616 2.215,-1.603 2.333,-3.194 0.046,-0.652 -0.209,-1.824 0.955,-1.673 1.063,0.137 0.65,1.204 0.631,1.899 -0.117,4.553 2.836,9.105 6.917,10.602 5.538,2.031 11.737,-1.355 13.388,-7.292 0.17,-0.614 -0.003,-1.577 1.003,-1.582 1.012,-0.004 0.841,1 1.018,1.587 2.976,9.857 14.142,13.479 21.506,6.902 3.061,-2.733 4.534,-6.282 4.776,-10.36 0.032,-0.545 -0.231,-1.278 0.577,-1.458 0.748,-0.167 0.965,0.528 1.244,1.01 1.058,1.82 2.153,3.612 3.756,5.017 1.927,1.688 4.212,2.622 6.611,1.544 3.879,-1.741 5.979,-4.95 6.446,-9.201 0.861,-7.851 -1.594,-14.961 -4.999,-21.812 -3.392,-6.821 -8.498,-12.214 -14.517,-16.796 -1.627,-1.239 -3.13,-2.62 -4.529,-4.115 -4.082,-4.361 -4.66,-9.783 -4.497,-15.349 0.217,-7.4 0.508,-14.803 1.558,-22.148 2.153,-15.054 5.448,-29.785 12.325,-43.5 1.234,-2.458 2.694,-4.77 4.524,-6.833 7.028,-7.927 16.708,-8.455 24.567,-1.324 4.6,4.173 7.232,9.572 8.993,15.355 5.281,17.342 9.761,34.886 12.691,52.799 2.111,12.908 3.518,25.879 3.481,38.98 -0.006,2.523 -0.282,5.014 -1.243,7.371 -1.284,3.149 -3.552,4.118 -6.772,2.966 -2.655,-0.948 -4.452,-2.92 -6.066,-5.095 -2.019,-2.724 -3.538,-5.75 -5.153,-8.716 -1.297,-2.382 -2.579,-4.778 -4.823,-6.697 0.137,1.623 0.258,3.247 0.414,4.868 0.915,9.522 1.928,19.041 1.499,28.63 -0.117,2.618 -0.486,5.224 -0.678,7.84 -0.072,0.981 -0.703,1.42 -1.34,2.032 -1.615,1.554 -3.38,2.91 -5.341,3.923 -4.966,2.565 -8.693,6.387 -11.738,10.985 -6.157,9.296 -10.405,19.249 -10.608,30.603 -0.224,12.491 3.968,23.529 11.15,33.555 7.066,9.866 16.218,17.5 26.155,24.28 0.371,0.252 0.75,0.721 1.242,0.444 1.072,-0.606 1.385,-0.02 1.452,0.88 0.06,0.825 0.761,0.985 1.26,1.299 5.763,3.628 11.544,7.228 17.321,10.834 0.414,-0.382 0.193,-1.38 1.111,-1.246 0.738,0.108 0.771,0.743 0.756,1.335 -0.006,0.224 -0.065,0.447 -0.101,0.671 2.397,1.767 5.095,3.013 7.711,4.389 C -8.904,-3.996 -4.534,-1.822 0,0"
             style="fill:#ffffff;fill-opacity:1;fill-rule:nonzero;stroke:none;stroke-width:0.03714729"
             id="path212"
             inkscape:connector-curvature="0" />
        </g>
        <g
           id="g214"
           transform="translate(905.4443,570.2666)"
           style="stroke-width:0.03714729">
          <path
             d="M 0,0 C 7.686,2.978 15.578,4.796 23.888,4.212 30.366,3.757 36.659,2.311 42.896,0.581 43.344,0.457 43.797,0.35 44.248,0.234 45.094,-0.707 44.144,-1.395 43.793,-2.023 39.164,-10.321 32.225,-15.302 22.598,-15.469 12.956,-15.636 5.887,-10.856 1.005,-2.698 0.516,-1.88 -0.201,-1.097 0,0"
             style="fill:#a52828;fill-opacity:1;fill-rule:nonzero;stroke:none;stroke-width:0.03714729"
             id="path216"
             inkscape:connector-curvature="0" />
        </g>
        <g
           id="g218"
           transform="translate(998.2812,671.9341)"
           style="stroke-width:0.03714729">
          <path
             d="m 0,0 c 0.354,-0.061 0.706,-0.121 1.06,-0.181 3.372,-0.702 5.424,-2.871 6.763,-5.93 1.606,-3.671 2.809,-4.289 6.673,-2.978 4.017,1.362 7.809,1.645 11.388,-1.06 4.556,-4.537 3.972,-9.937 2.689,-15.51 -2.194,-9.528 -7.998,-16.235 -16.229,-21.103 -2.805,-1.658 -5.592,-3.346 -8.376,-5.04 -4.325,-2.631 -6.105,-6.654 -6.421,-11.551 -0.86,-13.335 0.298,-26.543 2.268,-39.716 1.235,-8.243 2.377,-16.501 2.281,-24.867 -0.007,-0.58 0.362,-1.288 -0.338,-1.755 -6.481,4.827 -13.327,9.065 -20.504,12.776 -0.498,0.258 -1.132,0.361 -1.345,1.01 -0.589,8.163 0.639,16.295 0.435,24.448 -0.207,8.285 -0.996,16.514 -2.67,24.644 -1.13,5.491 -4.246,9.103 -9.641,10.919 -6.569,2.212 -12.943,4.894 -18.777,8.737 -10.108,6.657 -14.148,16.47 -14.647,28.091 -0.126,2.929 0.698,5.659 3.035,7.705 0.962,-0.028 2.118,-0.392 2.14,1.225 1.787,0.796 3.695,0.81 5.596,0.861 l 1.034,-0.098 c 2.819,-0.855 5.438,-2.028 7.386,-4.374 0.623,-0.751 1.304,-0.544 1.927,0.128 0.843,0.912 1.461,1.963 1.941,3.09 2.062,4.849 5.826,7.541 10.864,8.642 0.224,0.049 0.434,0.165 0.65,0.249 0.578,0.033 1.156,0.065 1.733,0.097 1.794,-0.051 3.557,-0.316 5.29,-0.774 0.35,-0.124 0.698,-0.247 1.047,-0.371 3.437,-1.769 6.496,-4.034 9.049,-6.954 0.751,-0.86 1.4,-0.597 1.997,0.169 0.326,0.419 0.532,0.897 0.557,1.44 0.177,3.799 2.382,5.997 5.748,7.279 0.413,0.139 0.826,0.279 1.239,0.419 C -2.772,-0.222 -1.386,-0.111 0,0"
             style="fill:#ffffff;fill-opacity:1;fill-rule:nonzero;stroke:none;stroke-width:0.03714729"
             id="path220"
             inkscape:connector-curvature="0" />
        </g>
        <g
           id="g222"
           transform="translate(938.0693,663.6655)"
           style="stroke-width:0.03714729">
          <path
             d="M 0,0 C 0.805,3.368 1.686,6.72 2.215,10.545 4.038,7.245 4.538,3.931 5.208,0.67 3.472,0.447 1.736,0.223 0,0"
             style="fill:#ffffff;fill-opacity:1;fill-rule:nonzero;stroke:none;stroke-width:0.03714729"
             id="path224"
             inkscape:connector-curvature="0" />
        </g>
        <g
           id="g226"
           transform="translate(1017.5771,665.7236)"
           style="stroke-width:0.03714729">
          <path
             d="M 0,0 C 0.459,2.725 0.918,5.45 1.444,8.568 3.589,4.952 6.867,2.338 6.616,-2.051 4.612,-0.716 2.435,0.055 0,0"
             style="fill:#ffffff;fill-opacity:1;fill-rule:nonzero;stroke:none;stroke-width:0.03714729"
             id="path228"
             inkscape:connector-curvature="0" />
        </g>
        <g
           id="g230"
           transform="translate(969.1953,671.9512)"
           style="stroke-width:0.03714729">
          <path
             d="M 0,0 C 0.089,2.627 1.612,4.862 2.048,7.464 3.459,4.919 4.678,2.36 4.889,-0.562 3.275,-0.229 1.656,0.043 0,0"
             style="fill:#ffffff;fill-opacity:1;fill-rule:nonzero;stroke:none;stroke-width:0.03714729"
             id="path232"
             inkscape:connector-curvature="0" />
        </g>
        <g
           id="g234"
           transform="translate(994.0928,673.0508)"
           style="stroke-width:0.03714729">
          <path
             d="M 0,0 C -0.388,2.659 0.538,5.16 0.786,8.267 3.081,5.75 3.717,3.178 3.839,0.402 2.554,0.323 1.25,0.422 0,0"
             style="fill:#ffffff;fill-opacity:1;fill-rule:nonzero;stroke:none;stroke-width:0.03714729"
             id="path236"
             inkscape:connector-curvature="0" />
        </g>
        <g
           id="g238"
           transform="translate(908.832,666.79)"
           style="stroke-width:0.03714729">
          <path
             d="M 0,0 C 0.558,3.254 1.114,6.509 1.672,9.764 3.092,6.181 2.895,2.278 4.002,-1.356 2.575,-1.385 1.283,-0.737 -0.1,-0.542 l -0.01,0.073 C -0.073,-0.312 -0.036,-0.156 0,0"
             style="fill:#ffffff;fill-opacity:1;fill-rule:nonzero;stroke:none;stroke-width:0.03714729"
             id="path240"
             inkscape:connector-curvature="0" />
        </g>
        <g
           id="g242"
           transform="translate(910.832,669.79)"
           style="stroke-width:0.03714729">
          <path
             d="M 0,0 C -0.036,-0.156 -0.073,-0.312 -0.11,-0.469 -0.073,-0.313 -0.036,-0.157 0,0"
             style="fill:#ffffff;fill-opacity:1;fill-rule:nonzero;stroke:none;stroke-width:0.03714729"
             id="path244"
             inkscape:connector-curvature="0" />
        </g>
        <g
           id="g246"
           transform="translate(841.5596,663.7979)"
           style="stroke-width:0.03714729">
          <path
             d="m 0,0 c 1.307,-0.512 2.553,-1.115 3.587,-2.104 0.835,-0.798 1.528,-0.682 1.624,0.54 0.391,4.983 3.286,7.881 7.761,9.512 0.581,0.087 1.163,0.175 1.744,0.262 1.298,-0.153 2.596,-0.307 3.893,-0.46 0.307,-0.081 0.614,-0.161 0.921,-0.241 2.644,-1.28 5.017,-2.908 6.736,-5.345 0.739,-1.047 1.32,-0.754 2.064,0.037 4.006,4.256 8.835,6.496 14.788,5.883 0.347,-0.05 0.695,-0.1 1.041,-0.15 4.88,-1.6 8.435,-4.572 9.874,-9.666 0.297,-1.054 0.39,-2.165 0.558,-3.253 0.067,-0.436 -0.12,-0.984 0.533,-1.124 0.532,-0.114 0.867,0.193 1.173,0.577 2.635,3.305 6.172,4.797 10.293,5.109 0.232,-0.009 0.466,-0.017 0.698,-0.026 1.681,-0.315 3.341,-0.702 4.899,-1.437 0.253,-0.551 0.632,-0.891 1.288,-0.774 6.604,-5.018 6.351,-12.816 3.441,-18.559 -2.789,-5.505 -7.129,-9.623 -12.077,-13.127 -3.803,-2.693 -7.622,-5.392 -11.625,-7.766 -8.072,-4.787 -11.728,-12.154 -12.931,-21.086 -1.31,-9.725 -1.683,-19.509 -1.792,-29.306 -0.057,-5.184 -0.402,-10.367 -0.146,-15.555 -0.111,-0.334 -0.262,-0.583 -0.611,-0.782 -6.046,-3.459 -12.05,-6.987 -17.911,-10.754 -0.275,-0.177 -0.567,-0.462 -0.91,-0.092 -0.409,5.647 -0.448,11.3 -0.303,16.958 0.284,11.065 2.001,21.914 4.66,32.645 1.065,4.305 1.629,8.69 1.017,13.172 -0.795,5.828 -3.695,10.203 -8.674,13.264 -4.132,2.541 -8.738,4.112 -12.996,6.393 -9.694,5.192 -15.253,15.224 -14.166,25.663 0.344,3.301 1.458,6.369 3.337,9.094 1.537,2.228 3.962,2.69 6.483,2.786 C -1.153,0.192 -0.576,0.096 0,0"
             style="fill:#ffffff;fill-opacity:1;fill-rule:nonzero;stroke:none;stroke-width:0.03714729"
             id="path248"
             inkscape:connector-curvature="0" />
        </g>
        <g
           id="g250"
           transform="translate(856.2861,673.4736)"
           style="stroke-width:0.03714729">
          <path
             d="M 0,0 C 0.408,2.955 0.382,6 1.812,9.026 3.433,6.035 2.858,2.922 3.484,0.037 2.323,0.025 1.162,0.012 0,0"
             style="fill:#ffffff;fill-opacity:1;fill-rule:nonzero;stroke:none;stroke-width:0.03714729"
             id="path252"
             inkscape:connector-curvature="0" />
        </g>
        <g
           id="g254"
           transform="translate(881.168,673.4863)"
           style="stroke-width:0.03714729">
          <path
             d="M 0,0 C 0.34,2.342 0.681,4.684 1.021,7.025 1.11,7.035 1.201,7.044 1.291,7.053 1.895,4.723 2.498,2.392 3.102,0.062 2.068,0.042 1.034,0.021 0,0"
             style="fill:#ffffff;fill-opacity:1;fill-rule:nonzero;stroke:none;stroke-width:0.03714729"
             id="path256"
             inkscape:connector-curvature="0" />
        </g>
        <g
           id="g258"
           transform="translate(835.7187,665.2251)"
           style="stroke-width:0.03714729">
          <path
             d="M 0,0 C 0.193,2.593 0.387,5.186 0.606,8.122 2.54,5.771 3.215,3.194 3.999,0.669 2.709,0.188 1.356,0.082 0,0"
             style="fill:#ffffff;fill-opacity:1;fill-rule:nonzero;stroke:none;stroke-width:0.03714729"
             id="path260"
             inkscape:connector-curvature="0" />
        </g>
        <g
           id="g262"
           transform="translate(952.4092,509.1978)"
           style="stroke-width:0.03714729">
          <path
             d="M 0,0 C 0.019,3.571 1.619,5.873 4.101,5.9 6.603,5.927 9.12,3.17 9.142,0.377 9.163,-2.375 6.579,-4.898 3.697,-4.939 1.358,-4.972 -0.017,-3.135 0,0"
             style="fill:#000000;fill-opacity:1;fill-rule:nonzero;stroke:none;stroke-width:0.03714729"
             id="path264"
             inkscape:connector-curvature="0" />
        </g>
        <g
           id="g266"
           transform="translate(904.2344,509.1978)"
           style="stroke-width:0.03714729">
          <path
             d="M 0,0 C 0.019,3.571 1.619,5.873 4.101,5.9 6.603,5.927 9.12,3.17 9.142,0.377 9.163,-2.375 6.579,-4.898 3.697,-4.939 1.358,-4.972 -0.017,-3.135 0,0"
             style="fill:#000000;fill-opacity:1;fill-rule:nonzero;stroke:none;stroke-width:0.03714729"
             id="path268"
             inkscape:connector-curvature="0" />
        </g>
        <g
           id="g270"
           transform="translate(925.6064,156.7227)"
           style="stroke-width:0.03714729">
          <path
             d="m 0,0 c 0,6.055 0.02,10.373 -0.019,14.692 -0.006,0.723 0.288,0.861 0.893,0.891 2.951,0.146 5.903,0.302 8.853,0.491 0.667,0.043 0.722,-0.335 0.739,-0.803 0.057,-1.636 0.225,-3.279 0.137,-4.908 -0.296,-5.457 0.343,-10.857 0.924,-16.255 0.844,-7.832 2.262,-15.559 4.76,-23.052 2.476,-7.424 5.694,-14.468 10.656,-20.614 5.218,-6.463 12.055,-10.199 20.15,-11.438 17.73,-2.715 33.798,1.34 47.822,12.637 9.546,7.69 15.054,17.933 17.818,29.734 2.784,11.887 2.243,23.782 -0.079,35.668 -1.733,8.872 -4.85,17.348 -7.414,25.982 -2.214,7.46 -4.025,15.03 -3.671,22.843 0.86,18.975 8.633,34.147 25.31,44.052 6.862,4.076 14.438,6.122 22.396,6.04 16.292,-0.166 29.122,-6.803 37.311,-21.224 4.331,-7.628 5.519,-16.006 4.741,-24.674 -0.621,-6.911 -2.691,-13.345 -6.521,-19.177 -3.536,-5.383 -8.186,-9.266 -14.603,-10.652 -10.051,-2.171 -20.666,2.419 -26.241,11.34 -3.768,6.029 -5.4,12.493 -3.581,19.554 0.522,2.027 1.366,3.919 2.91,5.415 1.001,0.969 2.165,1.647 3.56,1.826 3.687,0.471 6.095,-2.007 5.561,-5.687 -0.35,-2.408 -1.545,-4.513 -2.389,-6.743 -1.929,-5.1 0.058,-10.186 4.973,-12.602 3.81,-1.871 7.624,-1.599 11.246,0.426 5.713,3.193 9.019,8.252 10.452,14.52 2.943,12.859 -3.46,27.897 -17.755,32.632 -13.005,4.31 -27.518,-0.714 -35.103,-12.145 -3.815,-5.75 -5.708,-12.159 -6.531,-18.941 -1.202,-9.902 0.234,-19.599 2.275,-29.247 1.957,-9.251 4.238,-18.434 5.748,-27.779 1.81,-11.204 2.786,-22.445 1.559,-33.781 -1.204,-11.124 -4.272,-21.649 -10.218,-31.231 -7.343,-11.832 -17.938,-19.354 -31.186,-23.134 -14.541,-4.147 -29.127,-3.969 -43.561,0.599 -16.177,5.119 -27.321,15.823 -34.067,31.266 -3.886,8.898 -5.929,18.255 -6.957,27.87 C 0.282,-9.843 0.081,-4.057 0,0"
             style="fill:#ffffff;fill-opacity:1;fill-rule:nonzero;stroke:none;stroke-width:0.03714729"
             id="path272"
             inkscape:connector-curvature="0" />
        </g>
        <g
           id="g274"
           transform="translate(421.6221,491.4023)"
           style="stroke-width:0.03714729">
          <path
             d="m 0,0 c 17.665,19.396 36.802,37.406 57.234,53.863 0.501,0.403 -0.21,1.107 -0.707,0.707 C 36.095,38.113 16.958,20.104 -0.707,0.707 -1.14,0.232 -0.435,-0.477 0,0"
             style="fill:#000000;fill-opacity:1;fill-rule:nonzero;stroke:none;stroke-width:0.03714729"
             id="path276"
             inkscape:connector-curvature="0" />
        </g>
        <g
           id="g278"
           transform="translate(430.2725,490.5391)"
           style="stroke-width:0.03714729">
          <path
             d="m 0,0 c 18.387,12.586 37.756,23.674 57.92,33.158 0.581,0.273 0.075,1.135 -0.505,0.863 C 37.251,24.538 17.883,13.45 -0.505,0.864 -1.033,0.502 -0.533,-0.365 0,0"
             style="fill:#000000;fill-opacity:1;fill-rule:nonzero;stroke:none;stroke-width:0.03714729"
             id="path280"
             inkscape:connector-curvature="0" />
        </g>
        <g
           id="g282"
           transform="translate(432.0278,490.6616)"
           style="stroke-width:0.03714729">
          <path
             d="m 0,0 c 25.506,0.864 51.012,1.729 76.517,2.592 0.5,0.017 0.675,0.665 0.253,0.932 -1.339,0.848 -2.668,0.983 -4.136,0.394 -0.59,-0.236 -0.333,-1.204 0.265,-0.964 1.152,0.462 2.309,0.376 3.366,-0.293 l 0.252,0.931 C 51.012,2.729 25.506,1.864 0,1 -0.642,0.979 -0.645,-0.021 0,0"
             style="fill:#000000;fill-opacity:1;fill-rule:nonzero;stroke:none;stroke-width:0.03714729"
             id="path284"
             inkscape:connector-curvature="0" />
        </g>
        <g
           id="g286"
           transform="translate(247.8984,492.1094)"
           style="stroke-width:0.03714729">
          <path
             d="m 0,0 c -17.665,19.396 -36.802,37.406 -57.234,53.863 -0.497,0.4 -1.209,-0.303 -0.707,-0.707 C -37.509,36.699 -18.372,18.689 -0.707,-0.707 -0.272,-1.184 0.433,-0.475 0,0"
             style="fill:#000000;fill-opacity:1;fill-rule:nonzero;stroke:none;stroke-width:0.03714729"
             id="path288"
             inkscape:connector-curvature="0" />
        </g>
        <g
           id="g290"
           transform="translate(239.0459,491.4028)"
           style="stroke-width:0.03714729">
          <path
             d="m 0,0 c -18.388,12.586 -37.756,23.674 -57.92,33.157 -0.579,0.273 -1.087,-0.589 -0.505,-0.863 C -38.261,22.811 -18.892,11.723 -0.504,-0.864 0.028,-1.228 0.528,-0.362 0,0"
             style="fill:#000000;fill-opacity:1;fill-rule:nonzero;stroke:none;stroke-width:0.03714729"
             id="path292"
             inkscape:connector-curvature="0" />
        </g>
        <g
           id="g294"
           transform="translate(236.7856,491.6616)"
           style="stroke-width:0.03714729">
          <path
             d="m 0,0 c -25.506,0.864 -51.012,1.729 -76.517,2.592 0.084,-0.31 0.168,-0.621 0.252,-0.931 1.057,0.669 2.214,0.755 3.366,0.293 0.597,-0.239 0.856,0.728 0.265,0.964 -1.47,0.59 -2.8,0.451 -4.136,-0.394 -0.421,-0.267 -0.248,-0.915 0.253,-0.932 C -51.012,0.729 -25.506,-0.136 0,-1 0.644,-1.021 0.643,-0.021 0,0"
             style="fill:#000000;fill-opacity:1;fill-rule:nonzero;stroke:none;stroke-width:0.03714729"
             id="path296"
             inkscape:connector-curvature="0" />
        </g>
        <g
           id="g298"
           transform="translate(1019.6221,480.4023)"
           style="stroke-width:0.03714729">
          <path
             d="m 0,0 c 17.665,19.396 36.803,37.406 57.234,53.863 0.501,0.403 -0.21,1.107 -0.707,0.707 C 36.096,38.113 16.958,20.104 -0.707,0.707 -1.14,0.232 -0.435,-0.477 0,0"
             style="fill:#ffffff;fill-opacity:1;fill-rule:nonzero;stroke:none;stroke-width:0.03714729"
             id="path300"
             inkscape:connector-curvature="0" />
        </g>
        <g
           id="g302"
           transform="translate(1028.2725,479.5391)"
           style="stroke-width:0.03714729">
          <path
             d="m 0,0 c 18.388,12.586 37.756,23.674 57.92,33.158 0.582,0.273 0.074,1.135 -0.505,0.863 C 37.251,24.538 17.883,13.45 -0.505,0.864 -1.033,0.502 -0.533,-0.365 0,0"
             style="fill:#ffffff;fill-opacity:1;fill-rule:nonzero;stroke:none;stroke-width:0.03714729"
             id="path304"
             inkscape:connector-curvature="0" />
        </g>
        <g
           id="g306"
           transform="translate(1030.0283,479.6616)"
           style="stroke-width:0.03714729">
          <path
             d="m 0,0 c 25.506,0.864 51.011,1.729 76.517,2.592 0.5,0.017 0.674,0.665 0.253,0.932 -1.34,0.848 -2.669,0.983 -4.137,0.394 -0.59,-0.236 -0.332,-1.204 0.266,-0.964 1.152,0.462 2.308,0.376 3.366,-0.293 l 0.252,0.931 C 51.011,2.729 25.506,1.864 0,1 -0.642,0.979 -0.646,-0.021 0,0"
             style="fill:#ffffff;fill-opacity:1;fill-rule:nonzero;stroke:none;stroke-width:0.03714729"
             id="path308"
             inkscape:connector-curvature="0" />
        </g>
        <g
           id="g310"
           transform="translate(845.8984,481.1094)"
           style="stroke-width:0.03714729">
          <path
             d="m 0,0 c -17.665,19.396 -36.803,37.406 -57.234,53.863 -0.496,0.4 -1.208,-0.303 -0.707,-0.707 C -37.51,36.699 -18.372,18.689 -0.707,-0.707 -0.272,-1.184 0.433,-0.475 0,0"
             style="fill:#ffffff;fill-opacity:1;fill-rule:nonzero;stroke:none;stroke-width:0.03714729"
             id="path312"
             inkscape:connector-curvature="0" />
        </g>
        <g
           id="g314"
           transform="translate(837.0459,480.4028)"
           style="stroke-width:0.03714729">
          <path
             d="m 0,0 c -18.388,12.586 -37.756,23.674 -57.92,33.157 -0.579,0.273 -1.087,-0.589 -0.505,-0.863 20.164,-9.483 39.532,-20.571 57.92,-33.158 C 0.027,-1.228 0.528,-0.362 0,0"
             style="fill:#ffffff;fill-opacity:1;fill-rule:nonzero;stroke:none;stroke-width:0.03714729"
             id="path316"
             inkscape:connector-curvature="0" />
        </g>
        <g
           id="g318"
           transform="translate(834.7852,480.6616)"
           style="stroke-width:0.03714729">
          <path
             d="m 0,0 c -25.505,0.864 -51.011,1.729 -76.517,2.592 l 0.252,-0.931 c 1.058,0.669 2.214,0.755 3.366,0.293 0.597,-0.239 0.857,0.728 0.266,0.964 -1.471,0.59 -2.801,0.451 -4.137,-0.394 -0.421,-0.267 -0.248,-0.915 0.253,-0.932 C -51.011,0.729 -25.505,-0.136 0,-1 0.644,-1.021 0.644,-0.021 0,0"
             style="fill:#ffffff;fill-opacity:1;fill-rule:nonzero;stroke:none;stroke-width:0.03714729"
             id="path320"
             inkscape:connector-curvature="0" />
        </g>
      </g>
    </g>
  </g>
</svg>
